<svg xmlns="http://www.w3.org/2000/svg" viewBox="0 0 220 220" width="220" height="220" role="img" aria-label="Placeholder Paytm QR code">
  <rect width="220" height="220" fill="#ffffff"/>
  <g fill="#0f0f0f">
    <!-- Finder patterns (three corner squares) -->
    <rect x="10" y="10" width="44" height="44"/>
    <rect x="16" y="16" width="32" height="32" fill="#ffffff"/>
    <rect x="22" y="22" width="20" height="20"/>
    <rect x="166" y="10" width="44" height="44"/>
    <rect x="172" y="16" width="32" height="32" fill="#ffffff"/>
    <rect x="178" y="22" width="20" height="20"/>
    <rect x="10" y="166" width="44" height="44"/>
    <rect x="16" y="172" width="32" height="32" fill="#ffffff"/>
    <rect x="22" y="178" width="20" height="20"/>
    <!-- Random module pattern so it reads as a QR placeholder -->
    <rect x="66" y="14" width="8" height="8"/><rect x="82" y="14" width="8" height="8"/><rect x="98" y="14" width="8" height="8"/><rect x="122" y="14" width="8" height="8"/><rect x="146" y="14" width="8" height="8"/>
    <rect x="74" y="30" width="8" height="8"/><rect x="90" y="30" width="8" height="8"/><rect x="106" y="30" width="8" height="8"/><rect x="130" y="30" width="8" height="8"/><rect x="154" y="30" width="8" height="8"/>
    <rect x="66" y="46" width="8" height="8"/><rect x="98" y="46" width="8" height="8"/><rect x="114" y="46" width="8" height="8"/><rect x="138" y="46" width="8" height="8"/>
    <rect x="58" y="62" width="8" height="8"/><rect x="74" y="62" width="8" height="8"/><rect x="90" y="62" width="8" height="8"/><rect x="122" y="62" width="8" height="8"/><rect x="146" y="62" width="8" height="8"/><rect x="170" y="62" width="8" height="8"/><rect x="194" y="62" width="8" height="8"/>
    <rect x="66" y="78" width="8" height="8"/><rect x="82" y="78" width="8" height="8"/><rect x="106" y="78" width="8" height="8"/><rect x="138" y="78" width="8" height="8"/><rect x="162" y="78" width="8" height="8"/><rect x="186" y="78" width="8" height="8"/>
    <rect x="58" y="94" width="8" height="8"/><rect x="90" y="94" width="8" height="8"/><rect x="114" y="94" width="8" height="8"/><rect x="130" y="94" width="8" height="8"/><rect x="154" y="94" width="8" height="8"/><rect x="178" y="94" width="8" height="8"/><rect x="202" y="94" width="8" height="8"/>
    <rect x="66" y="110" width="8" height="8"/><rect x="82" y="110" width="8" height="8"/><rect x="98" y="110" width="8" height="8"/><rect x="122" y="110" width="8" height="8"/><rect x="146" y="110" width="8" height="8"/><rect x="170" y="110" width="8" height="8"/>
    <rect x="58" y="126" width="8" height="8"/><rect x="74" y="126" width="8" height="8"/><rect x="106" y="126" width="8" height="8"/><rect x="130" y="126" width="8" height="8"/><rect x="162" y="126" width="8" height="8"/><rect x="194" y="126" width="8" height="8"/>
    <rect x="82" y="142" width="8" height="8"/><rect x="98" y="142" width="8" height="8"/><rect x="114" y="142" width="8" height="8"/><rect x="138" y="142" width="8" height="8"/><rect x="178" y="142" width="8" height="8"/><rect x="202" y="142" width="8" height="8"/>
    <rect x="66" y="158" width="8" height="8"/><rect x="90" y="158" width="8" height="8"/><rect x="122" y="158" width="8" height="8"/><rect x="146" y="158" width="8" height="8"/><rect x="170" y="158" width="8" height="8"/>
    <rect x="74" y="174" width="8" height="8"/><rect x="98" y="174" width="8" height="8"/><rect x="114" y="174" width="8" height="8"/><rect x="130" y="174" width="8" height="8"/><rect x="162" y="174" width="8" height="8"/><rect x="186" y="174" width="8" height="8"/>
    <rect x="66" y="190" width="8" height="8"/><rect x="82" y="190" width="8" height="8"/><rect x="106" y="190" width="8" height="8"/><rect x="138" y="190" width="8" height="8"/><rect x="154" y="190" width="8" height="8"/><rect x="178" y="190" width="8" height="8"/><rect x="202" y="190" width="8" height="8"/>
  </g>
  <!-- Placeholder label -->
  <g font-family="system-ui, -apple-system, sans-serif">
    <rect x="70" y="98" width="80" height="24" fill="#ffffff" opacity="0.92"/>
    <text x="110" y="114" text-anchor="middle" font-size="11" font-weight="700" fill="#a94e2a" letter-spacing="1">PLACEHOLDER</text>
  </g>
</svg>
